<svg width="12" height="12" viewBox="0 0 12 12" fill="none" xmlns="http://www.w3.org/2000/svg">
<path d="M6 12.0001C4.39734 12.0001 2.89062 11.3759 1.75734 10.2427C0.624117 9.10944 0 7.60272 0 6.00006C0 4.3974 0.624117 2.89068 1.75734 1.7574C2.89062 0.624178 4.39734 6.10352e-05 6 6.10352e-05C7.60266 6.10352e-05 9.10938 0.624178 10.2427 1.7574C11.3759 2.89068 12 4.3974 12 6.00006C12 7.60272 11.3759 9.10944 10.2427 10.2427C9.10938 11.3759 7.60266 12.0001 6 12.0001ZM6 0.937561C3.20852 0.937561 0.9375 3.20858 0.9375 6.00006C0.9375 8.79154 3.20852 11.0626 6 11.0626C8.79148 11.0626 11.0625 8.79154 11.0625 6.00006C11.0625 3.20858 8.79148 0.937561 6 0.937561ZM8.11671 8.15453C8.29976 7.97146 8.29978 7.67467 8.11671 7.49162C7.93362 7.30855 7.63683 7.30858 7.4538 7.49162C6.63134 8.31405 5.29315 8.31409 4.47068 7.49162C4.07229 7.09321 3.85287 6.5635 3.85287 6.00006C3.85287 5.43662 4.07229 4.90691 4.47068 4.5085C5.29315 3.68603 6.63134 3.68608 7.4538 4.5085C7.63687 4.69157 7.93366 4.69157 8.11671 4.5085C8.29976 4.32543 8.29976 4.02864 8.11671 3.84559C6.92871 2.65762 4.99573 2.65764 3.80777 3.84559C3.23227 4.42108 2.91534 5.18622 2.91534 6.00006C2.91534 6.8139 3.23227 7.57905 3.80777 8.15453C4.40175 8.74851 5.18198 9.04551 5.96224 9.04551C6.7425 9.04551 7.52273 8.74851 8.11671 8.15453Z" fill="#474747"/>
</svg>
