<svg width="10" height="18" viewBox="0 0 10 18" fill="none" xmlns="http://www.w3.org/2000/svg">
<path d="M9.5 3.00006H6.5C5.94772 3.00006 5.5 3.44778 5.5 4.00006V7.00006H9.5C9.61374 6.99754 9.7216 7.05045 9.78923 7.14194C9.85685 7.23343 9.87578 7.35207 9.84 7.46006L9.1 9.66006C9.03181 9.86198 8.84312 9.99848 8.63 10.0001H5.5V17.5001C5.5 17.7762 5.27614 18.0001 5 18.0001H2.5C2.22386 18.0001 2 17.7762 2 17.5001V10.0001H0.5C0.223858 10.0001 0 9.7762 0 9.50006V7.50006C0 7.22392 0.223858 7.00006 0.5 7.00006H2V4.00006C2 1.79092 3.79086 6.10352e-05 6 6.10352e-05H9.5C9.77614 6.10352e-05 10 0.223919 10 0.500061V2.50006C10 2.7762 9.77614 3.00006 9.5 3.00006Z" fill="#474747"/>
</svg>
