<svg width="21" height="20" viewBox="0 0 21 20" fill="none" xmlns="http://www.w3.org/2000/svg">
<path d="M20.0015 10.0083C19.9982 14.3107 17.2434 18.1287 13.1615 19.4883C13.0087 19.5354 12.8427 19.5095 12.7115 19.4183C12.5802 19.3228 12.5022 19.1706 12.5015 19.0083V16.3383C12.5231 15.6191 12.3504 14.9075 12.0015 14.2783C11.9487 14.196 11.9487 14.0905 12.0015 14.0083C12.042 13.9324 12.1163 13.8804 12.2015 13.8683C14.6415 13.6183 16.0015 12.6483 16.0015 10.0083C16.0603 8.77563 15.633 7.56913 14.8115 6.64827C14.9313 6.25928 14.9953 5.85525 15.0015 5.44827C14.9972 5.08339 14.9468 4.72051 14.8515 4.36827C14.7886 4.1334 14.563 3.98015 14.3215 4.00827C13.4052 4.13832 12.5523 4.5508 11.8815 5.18827C10.6396 4.94833 9.36332 4.94833 8.12147 5.18827C7.45062 4.5508 6.59772 4.13832 5.68147 4.00827C5.43996 3.98015 5.21435 4.1334 5.15147 4.36827C5.05616 4.72051 5.00576 5.08339 5.00147 5.44827C5.00769 5.85525 5.07166 6.25928 5.19147 6.64827C4.36995 7.56913 3.94265 8.77563 4.00147 10.0083C4.00147 12.7883 5.51147 13.7183 8.28147 13.9483C7.93762 14.3989 7.70158 14.9223 7.59147 15.4783C7.59147 15.4783 7.59147 15.5483 7.59147 15.5983C7.58666 15.6448 7.58666 15.6917 7.59147 15.7383C7.54986 16.0526 7.2672 16.2779 6.95147 16.2483C6.80093 16.2412 6.65393 16.2002 6.52147 16.1283C5.97668 15.7965 5.49575 15.3697 5.10147 14.8683C4.85026 14.5834 4.58317 14.313 4.30147 14.0583C4.12248 13.9033 3.92416 13.7722 3.71147 13.6683C3.56243 13.5845 3.38052 13.5845 3.23147 13.6683C3.08839 13.7601 3.00176 13.9183 3.00147 14.0883V14.1483C3.00176 14.3183 3.08839 14.4765 3.23147 14.5683C3.59044 14.8687 3.90077 15.2229 4.15147 15.6183C4.57485 16.2817 5.11331 16.8642 5.74147 17.3383C6.15535 17.6157 6.64321 17.7621 7.14147 17.7583H7.50147V19.0083C7.5007 19.1706 7.42272 19.3228 7.29147 19.4183C7.16021 19.5095 6.99426 19.5354 6.84147 19.4883C1.99352 17.8736 -0.857286 12.8638 0.230845 7.87118C1.31897 2.8786 5.99597 -0.490543 11.0762 0.0585968C16.1563 0.607737 20.0054 4.89849 20.0015 10.0083Z" fill="#474747"/>
</svg>
