<svg width="18" height="17" viewBox="0 0 18 17" fill="none" xmlns="http://www.w3.org/2000/svg">
<path fill-rule="evenodd" clip-rule="evenodd" d="M0 2.00006C0 0.895491 0.89543 6.10352e-05 2 6.10352e-05C2.53043 6.10352e-05 3.03914 0.210775 3.41421 0.585848C3.78929 0.96092 4 1.46963 4 2.00006C4 3.10463 3.10457 4.00006 2 4.00006C0.89543 4.00006 0 3.10463 0 2.00006ZM17.5 10.4101C17.5345 8.24495 16.0574 6.34768 13.95 5.85006C12.5377 5.54596 11.0657 5.94472 10 6.92006V6.50006C10 6.22391 9.77614 6.00006 9.5 6.00006H7C6.72386 6.00006 6.5 6.22391 6.5 6.50006V16.5001C6.5 16.7762 6.72386 17.0001 7 17.0001H9.5C9.77614 17.0001 10 16.7762 10 16.5001V10.8601C9.97531 9.85577 10.6753 8.97873 11.66 8.78006C12.2464 8.67884 12.8473 8.84396 13.2997 9.23056C13.752 9.61716 14.0087 10.1851 14 10.7801V16.5001C14 16.7762 14.2239 17.0001 14.5 17.0001H17C17.2761 17.0001 17.5 16.7762 17.5 16.5001V10.4101ZM4 6.50006V16.5001C4 16.7762 3.77614 17.0001 3.5 17.0001H1C0.723858 17.0001 0.5 16.7762 0.5 16.5001V6.50006C0.5 6.22392 0.723858 6.00006 1 6.00006H3.5C3.77614 6.00006 4 6.22392 4 6.50006Z" fill="#474747"/>
</svg>
