<svg width="20" height="17" viewBox="0 0 20 17" fill="none" xmlns="http://www.w3.org/2000/svg">
<path d="M19.9698 2.46384C19.4537 3.15219 18.83 3.75264 18.1226 4.24201C18.1226 4.42183 18.1226 4.60164 18.1226 4.79145C18.1282 8.05686 16.8239 11.188 14.5019 13.4828C12.18 15.7777 9.03469 17.0444 5.77114 16.9989C3.8844 17.0052 2.02183 16.5744 0.329325 15.7402C0.238065 15.7003 0.179203 15.61 0.17955 15.5104V15.4005C0.17955 15.2571 0.295781 15.1408 0.43916 15.1408C2.29377 15.0797 4.08222 14.4366 5.55147 13.3027C3.87279 13.2689 2.3624 12.2744 1.66731 10.7453C1.6322 10.6618 1.64313 10.566 1.69616 10.4926C1.74918 10.4191 1.83663 10.3786 1.92692 10.3857C2.43711 10.437 2.9524 10.3895 3.44464 10.2458C1.59151 9.86116 0.199097 8.32271 -0.000179413 6.43975C-0.00726198 6.34942 0.0332177 6.26193 0.106636 6.20888C0.180054 6.15583 0.275798 6.14489 0.35928 6.18002C0.856578 6.39945 1.39341 6.51503 1.93691 6.51967C0.31313 5.4539 -0.388234 3.42678 0.229475 1.58475C0.293237 1.40576 0.446425 1.27353 0.632746 1.23666C0.819067 1.19978 1.01104 1.26371 1.13811 1.40493C3.32929 3.73701 6.34002 5.12668 9.53547 5.28094C9.45362 4.95433 9.41336 4.61868 9.41565 4.28197C9.44554 2.51642 10.538 0.943628 12.1815 0.299922C13.825 -0.343785 15.6943 0.0689882 16.9144 1.345C17.746 1.18657 18.55 0.907225 19.3008 0.51585C19.3558 0.481515 19.4255 0.481515 19.4805 0.51585C19.5148 0.570871 19.5148 0.640644 19.4805 0.695665C19.1169 1.52841 18.5025 2.22686 17.7232 2.69361C18.4056 2.61446 19.0761 2.45347 19.7201 2.2141C19.7744 2.17719 19.8456 2.17719 19.8999 2.2141C19.9453 2.23489 19.9793 2.27463 19.9927 2.32275C20.0062 2.37087 19.9978 2.42248 19.9698 2.46384Z" fill="#474747"/>
</svg>
